<svg width="347" height="355" viewBox="0 0 347 355" fill="none" xmlns="http://www.w3.org/2000/svg">
<g clip-path="url(#clip0_60_4184)">
<path d="M292.395 302H54.6035L-0.271484 355.25V53.5C-0.271484 24.2125 24.4223 0.25 54.6035 0.25H292.395C322.576 0.25 347.27 24.2125 347.27 53.5V248.75C347.27 278.038 322.576 302 292.395 302Z" fill="#496A7C"/>
<path d="M155.209 124.5H191.792V222.125H155.209V124.5Z" fill="white"/>
<path d="M173.501 97.875C183.603 97.875 191.792 89.928 191.792 80.125C191.792 70.3219 183.603 62.375 173.501 62.375C163.398 62.375 155.209 70.3219 155.209 80.125C155.209 89.928 163.398 97.875 173.501 97.875Z" fill="white"/>
</g>
<defs>
<clipPath id="clip0_60_4184">
<rect width="347" height="355" fill="white"/>
</clipPath>
</defs>
</svg>
