<svg id="_023---Sign-Form" data-name="023---Sign-Form" xmlns="http://www.w3.org/2000/svg" width="142" height="142" viewBox="0 0 142 142">
  <path id="Shape" d="M14.387,8.733A2.367,2.367,0,1,0,12.02,6.367,2.367,2.367,0,0,0,14.387,8.733Z" transform="translate(16.427 5.467)" fill="#202020"/>
  <path id="Shape-2" data-name="Shape" d="M10.387,8.733A2.367,2.367,0,1,0,8.02,6.367,2.367,2.367,0,0,0,10.387,8.733Z" transform="translate(10.961 5.467)" fill="#202020"/>
  <path id="Shape-3" data-name="Shape" d="M6.387,8.733A2.367,2.367,0,1,0,4.02,6.367,2.367,2.367,0,0,0,6.387,8.733Z" transform="translate(5.494 5.467)" fill="#202020"/>
  <path id="Shape-4" data-name="Shape" d="M130.167,0H11.833A11.848,11.848,0,0,0,0,11.833V130.167A11.848,11.848,0,0,0,11.833,142H130.167A11.848,11.848,0,0,0,142,130.167V11.833A11.848,11.848,0,0,0,130.167,0ZM11.833,4.733H130.167a7.1,7.1,0,0,1,7.1,7.1v7.1H4.733v-7.1A7.1,7.1,0,0,1,11.833,4.733ZM130.167,137.267H11.833a7.1,7.1,0,0,1-7.1-7.1V23.667H137.267v106.5A7.1,7.1,0,0,1,130.167,137.267Z" fill="#202020"/>
  <path id="Shape-5" data-name="Shape" d="M54.367,10.1a2.367,2.367,0,1,0,4.733,0,2.367,2.367,0,1,0,0-4.733,2.367,2.367,0,1,0-4.733,0,2.367,2.367,0,1,0,0,4.733Z" transform="translate(71.067 4.1)" fill="#202020"/>
  <path id="Shape-6" data-name="Shape" d="M48.367,8.733H53.1A2.367,2.367,0,1,0,53.1,4H48.367a2.367,2.367,0,1,0,0,4.733Z" transform="translate(62.867 5.467)" fill="#202020"/>
  <path id="Shape-7" data-name="Shape" d="M9.733,31.933H76A4.733,4.733,0,0,0,80.733,27.2V17.733A4.733,4.733,0,0,0,76,13H9.733A4.733,4.733,0,0,0,5,17.733V27.2A4.733,4.733,0,0,0,9.733,31.933Zm0-14.2H76V27.2H9.733Z" transform="translate(6.833 17.767)" fill="#202020"/>
  <path id="Shape-8" data-name="Shape" d="M79.367,25.367A2.367,2.367,0,0,0,77,23H8.367a2.367,2.367,0,1,0,0,4.733H77A2.367,2.367,0,0,0,79.367,25.367Z" transform="translate(8.2 31.433)" fill="#202020"/>
  <path id="Shape-9" data-name="Shape" d="M72.267,29.367A2.367,2.367,0,0,0,69.9,27H8.367a2.367,2.367,0,1,0,0,4.733H69.9A2.367,2.367,0,0,0,72.267,29.367Z" transform="translate(8.2 36.9)" fill="#202020"/>
  <path id="Shape-10" data-name="Shape" d="M67.533,33.367A2.367,2.367,0,0,0,65.167,31H8.367a2.367,2.367,0,0,0,0,4.733h56.8A2.367,2.367,0,0,0,67.533,33.367Z" transform="translate(8.2 42.367)" fill="#202020"/>
  <path id="Shape-11" data-name="Shape" d="M8.367,35a2.367,2.367,0,0,0,0,4.733H60.433a2.367,2.367,0,0,0,0-4.733Z" transform="translate(8.2 47.833)" fill="#202020"/>
  <path id="Shape-12" data-name="Shape" d="M118.6,76.9H96.933c35.358-66.792,21.629-40.853,25.3-47.788a9.479,9.479,0,0,0-3.938-12.8L114.1,14.1a9.467,9.467,0,0,0-12.78,3.938C63.762,89,71.721,73.939,70.154,76.9H9.733A4.733,4.733,0,0,0,5,81.63v28.4a4.733,4.733,0,0,0,4.733,4.733H118.6a4.733,4.733,0,0,0,4.733-4.733V81.63A4.733,4.733,0,0,0,118.6,76.9ZM96.64,36.983l4.184,2.215-22.235,42a22.043,22.043,0,0,0-4.771-1.1Zm4.43-8.366,12.543,6.643L111.4,39.444,98.855,32.8Zm-28.8,56.024a17.94,17.94,0,0,1,6.284,1.683,17.9,17.9,0,0,1,4.918,4.246L70.46,101.6Zm14.091,2.1a22.079,22.079,0,0,0-3.595-3.328l22.247-42,4.184,2.213c-3.145,5.9-19.712,37.213-22.836,43.116ZM111.9,18.282,116.08,20.5a4.733,4.733,0,0,1,1.969,6.39l-2.215,4.184L103.29,24.428l2.213-4.184a4.733,4.733,0,0,1,6.392-1.962Zm6.7,91.749H9.733V81.63H67.84c-.88,8.212,1.384-12.967-2.083,19.475a4.733,4.733,0,0,0,7.77,4.111c11.8-10,15.227-12.946,14.969-12.716.364-.324-.237.8,5.931-10.87H118.6Z" transform="translate(6.833 17.77)" fill="#202020"/>
  <path id="Shape-13" data-name="Shape" d="M15.1,50H10.367a2.367,2.367,0,1,0,0,4.733H15.1A2.367,2.367,0,0,0,15.1,50Z" transform="translate(10.933 68.333)" fill="#202020"/>
  <path id="Shape-14" data-name="Shape" d="M21.1,50H16.367a2.367,2.367,0,1,0,0,4.733H21.1A2.367,2.367,0,1,0,21.1,50Z" transform="translate(19.133 68.333)" fill="#202020"/>
  <path id="Shape-15" data-name="Shape" d="M27.1,50H22.367a2.367,2.367,0,1,0,0,4.733H27.1A2.367,2.367,0,1,0,27.1,50Z" transform="translate(27.333 68.333)" fill="#202020"/>
  <path id="Shape-16" data-name="Shape" d="M30.733,50H28.367a2.367,2.367,0,1,0,0,4.733h2.367a2.367,2.367,0,1,0,0-4.733Z" transform="translate(35.533 68.333)" fill="#202020"/>
  <path id="Shape-17" data-name="Shape" d="M41.733,50H39.367a2.367,2.367,0,0,0,0,4.733h2.367a2.367,2.367,0,1,0,0-4.733Z" transform="translate(50.567 68.333)" fill="#202020"/>
  <path id="Shape-18" data-name="Shape" d="M42,52.367a2.367,2.367,0,0,0,2.367,2.367H49.1A2.367,2.367,0,1,0,49.1,50H44.367A2.367,2.367,0,0,0,42,52.367Z" transform="translate(57.4 68.333)" fill="#202020"/>
  <path id="Shape-19" data-name="Shape" d="M50.367,54.733H55.1A2.367,2.367,0,0,0,55.1,50H50.367a2.367,2.367,0,1,0,0,4.733Z" transform="translate(65.6 68.333)" fill="#202020"/>
</svg>
